<svg xmlns="http://www.w3.org/2000/svg" xmlns:xlink="http://www.w3.org/1999/xlink" id="Layer_1" x="0px" y="0px" viewBox="0 0 221.5 100" style="enable-background:new 0 0 221.5 100;" xml:space="preserve"><style type="text/css">	.st0{fill:#DF6B21;}	.st1{fill:#646361;}</style><path class="st0" d="M218.9,43.1c0.7-5.4-5.4-6.4-10.5-6.4c-7.1,0-12,1.7-13,6.9c-0.7,3.2,1.2,4.9,5.4,5.4l6.4,0.7 c1.7,0.2,2.4,0.5,2.2,1.5c-0.2,1.5-2.2,1.7-3.7,1.7c-1.7,0-2.7-0.2-3.2-0.5c-0.5-0.2-0.7-1-0.7-1.7h-8.6c-1,5.9,5.9,6.6,11.3,6.6 c7.8,0,12.7-2.2,13.7-6.6c0.7-3.7-1.5-5.4-6.4-5.9l-6.4-0.7c-2-0.2-2.2-0.7-2.2-1.2c0.2-1.2,1.7-1.7,3.7-1.7c1,0,2,0,2.7,0.5 c0.7,0.2,1,0.7,1,1.7L218.9,43.1L218.9,43.1z M183.2,48.7c-0.5,2.7-3.2,4.2-7.6,4.2c-2,0-3.2-0.7-2.9-2.4c0.2-1.2,1-1.7,2.4-2 l5.1-0.5c1.5-0.2,2.4-0.2,2.9-0.5V48.7L183.2,48.7z M180.8,37c-5.9,0-11.5,0.7-13.2,6.4h7.3c0.7-1.7,2.2-2.4,4.9-2.4 c3.2,0,4.6,0.7,4.2,2c-0.2,1-0.5,1.5-2.7,1.5l-7.1,0.7c-5.4,0.2-8.6,2-9.5,6.1c-0.7,3.9,2,5.9,8.1,5.9c3.7,0,6.9-0.5,9.5-2.4 c0,0.5,0,1.2,0,1.7h7.3c-0.5-1-0.5-1.7,0-3.4l2-9.5C192.8,38.2,187.6,37,180.8,37L180.8,37z M157.3,37c-3.7,0-6.4,1.2-8.8,3.2 c-1.2-2.4-3.4-3.2-6.1-3.2c-3.7,0-6.1,1.5-8.3,3.2l0,0l0.5-2.7h-7.3L123,56.5h7.3l2.2-10.5c0.5-2,2.2-3.2,4.9-3.2c2,0,2.9,1,2.7,2.7 l-2.4,11h7.3l2.2-10.5c0.5-2,2.2-3.2,4.9-3.2c2,0,2.9,1,2.7,2.7l-2.4,11h7.3l2.7-13C164.4,38.7,161.2,37,157.3,37L157.3,37z  M125.2,37.2c-0.7-0.2-1.7-0.2-2.4-0.2c-3.4,0-6.6,1.7-8.6,4.2l0,0l0.7-3.7h-7.3l-4.2,19.1h7.3l1.5-7.3c0.7-3.4,3.2-5.6,7.3-5.6 c1.5,0,3.2,0.2,3.9,0.7L125.2,37.2z M104.7,30.9h-7.3l-1,4.4h7.3L104.7,30.9z M91.7,56.5h7.3l4.2-19.1h-7.3L91.7,56.5z M81.7,48.7 c-0.5,2.7-3.2,4.2-7.6,4.2c-2,0-3.2-0.7-2.9-2.4c0.2-1.2,1-1.7,2.4-2l5.1-0.5c1.5-0.2,2.4-0.2,2.9-0.5V48.7L81.7,48.7z M79.5,37 c-5.9,0-11.5,0.7-13.2,6.4h7.3c0.7-1.7,2.2-2.4,4.9-2.4c3.2,0,4.6,0.7,4.2,2c-0.2,1-0.5,1.5-2.7,1.5L72.6,45c-5.4,0.2-8.6,2-9.5,6.1 c-0.7,3.9,2,5.9,8.1,5.9c3.7,0,6.9-0.5,9.5-2.4c0,0.5,0,1.2,0,1.7H88c-0.5-1-0.5-1.7,0-3.4l2-9.5C91.2,37.9,86.3,37,79.5,37L79.5,37 z M65,37l1.2-5.6h-24l-5.4,25h8.3l2-9.8h14.4l1.2-5.4H48.4l1-4.4H65V37z"></path><path class="st1" d="M44,6.4c-11,3.9-21.8,9.8-30.1,18.8C5.6,34,0,48,3.6,61.4c3.7,13.2,14.2,22.5,25.2,28.1s23.2,8.6,35.2,9.3 c21.5,1,44-3.4,62.9-17.4V70.2h-12.2C101,80.8,82.2,85.9,64.3,86.1c-10.8,0-21.5-1.7-31.3-6.1c-9.5-4.2-18.4-11.3-21.5-21 c-3.4-9.5-0.2-21,6.9-29.4c6.9-8.6,16.6-14.9,26.9-19.1c21-8.6,45-10.3,66.6-2.2C100.5,3.4,88.5,1,76.3,1C65.3,1,54.5,2.7,44,6.4z"></path></svg>